<svg xmlns="http://www.w3.org/2000/svg" width="360" height="78" viewBox="0 0 582 126" preserveAspectRatio="xMaxYMax meet">   <g transform="translate(3,3)" fill="none">
        <rect id="Rectangle-40" stroke="currentColor" stroke-width="6" x="130" y="0" width="446" height="120"/>
        <path d="M86.67 43.33L120 43.33 120 76.67 86.67 76.67 86.67 43.33ZM0 86.67L120 86.67 120 120 0 120 0 86.67ZM0 0L120 0 120 33.33 0 33.33 0 0ZM0 43.33L76.67 43.33 76.67 76.67 0 76.67 0 43.33Z" id="Rectangle-19" stroke="currentColor" stroke-width="6"/>
        <path d="M187.81 46.38L187.81 35.75 160.09 35.75 160.09 84 172.63 84 172.63 65.06 186.41 65.06 186.41 54.44 172.63 54.44 172.63 46.38 187.81 46.38ZM203.49 51.16L191.83 51.16 191.83 84 203.49 84 203.49 70.75C203.45 67.85 204 65.49 205.14 63.66 206.29 61.82 208.42 60.89 211.55 60.84 213.3 60.8 214.94 61.16 216.46 61.91L216.46 50.72 214.24 50.72C209.53 50.68 205.99 52.61 203.61 56.53L203.49 56.53 203.49 51.16ZM237.72 50.09C232.3 50.09 227.7 51.58 223.91 54.56 220.01 57.58 218.02 61.94 217.94 67.63 218.02 73.21 220.03 77.49 223.97 80.47 227.72 83.51 232.3 85.05 237.72 85.09 243.18 85.05 247.8 83.51 251.59 80.47 255.45 77.49 257.42 73.21 257.5 67.63 257.42 61.94 255.45 57.58 251.59 54.56 247.8 51.58 243.18 50.09 237.72 50.09L237.72 50.09ZM237.72 60.19C240.11 60.23 241.97 60.96 243.28 62.38 244.55 63.77 245.19 65.52 245.19 67.63 245.19 69.71 244.55 71.44 243.28 72.81 241.97 74.25 240.11 74.97 237.72 74.97 235.32 74.97 233.49 74.25 232.22 72.81 230.89 71.44 230.22 69.71 230.22 67.63 230.22 65.52 230.89 63.77 232.22 62.38 233.49 60.96 235.32 60.23 237.72 60.19L237.72 60.19ZM273.91 51.16L262.25 51.16 262.25 84 273.91 84 273.91 66.97C273.86 64.84 274.31 63.05 275.25 61.59 276.1 60.16 277.68 59.42 279.97 59.38 281.43 59.38 282.54 59.65 283.31 60.19 284.06 60.79 284.55 61.54 284.78 62.44 285.07 63.33 285.24 64.27 285.28 65.25 285.24 66.23 285.22 67.15 285.22 68L285.22 84 296.88 84 296.88 63.72C296.88 59.61 295.94 56.3 294.06 53.78 292.08 51.36 288.91 50.14 284.53 50.09 280.09 50.01 276.59 51.78 274.03 55.41L273.91 55.41 273.91 51.16ZM316.78 60.78L323.38 60.78 323.38 51.16 316.78 51.16 316.78 41.31 305.16 41.31 305.16 51.16 301.38 51.16 301.38 60.78 305.16 60.78 305.16 84 316.78 84 316.78 60.78ZM336.5 62.81C336.92 61.1 337.75 59.8 339 58.91 340.23 58.05 341.7 57.63 343.41 57.63 345.07 57.63 346.52 58.09 347.75 59.03 348.96 59.93 349.71 61.19 350 62.81L336.5 62.81ZM360.81 68.31C360.65 56.42 354.66 50.34 342.84 50.09 337.43 50.14 333.07 51.67 329.78 54.69 326.41 57.77 324.7 62.08 324.66 67.63 324.7 73.25 326.51 77.55 330.09 80.53 333.59 83.57 338.11 85.09 343.66 85.09 347.55 85.09 351.05 84.18 354.16 82.34 357.28 80.51 359.35 77.67 360.38 73.81L349.16 73.81C347.93 75.88 346.07 76.89 343.59 76.84 338.74 76.8 336.31 74.36 336.31 69.53L360.81 69.53 360.81 68.31ZM377.08 51.16L365.43 51.16 365.43 84 377.08 84 377.08 66.97C377.04 64.84 377.49 63.05 378.43 61.59 379.28 60.16 380.85 59.42 383.14 59.38 384.6 59.38 385.72 59.65 386.49 60.19 387.24 60.79 387.73 61.54 387.96 62.44 388.25 63.33 388.41 64.27 388.46 65.25 388.41 66.23 388.39 67.15 388.39 68L388.39 84 400.05 84 400.05 63.72C400.05 59.61 399.11 56.3 397.24 53.78 395.26 51.36 392.08 50.14 387.71 50.09 383.27 50.01 379.77 51.78 377.21 55.41L377.08 55.41 377.08 51.16ZM431.43 84L443.08 84 443.08 35.88 431.43 35.88 431.43 54.38C430.2 52.87 428.69 51.78 426.89 51.09 425.1 50.43 423.23 50.09 421.27 50.09 416.31 50.18 412.36 51.91 409.43 55.28 406.38 58.59 404.84 62.69 404.8 67.56 404.84 72.38 406.4 76.45 409.49 79.78 412.51 83.24 416.48 85.01 421.39 85.09 423.35 85.09 425.25 84.69 427.08 83.88 428.83 83.1 430.24 81.93 431.3 80.34L431.43 80.34 431.43 84ZM424.33 60.19C426.73 60.23 428.58 60.96 429.89 62.38 431.19 63.77 431.83 65.52 431.83 67.63 431.83 69.71 431.19 71.44 429.89 72.81 428.58 74.25 426.73 74.97 424.33 74.97 421.94 74.97 420.1 74.25 418.83 72.81 417.5 71.44 416.83 69.71 416.83 67.63 416.83 65.52 417.5 63.77 418.83 62.38 420.1 60.96 421.94 60.23 424.33 60.19L424.33 60.19ZM464.64 84L477.18 84 477.18 54.44 477.33 54.44 500.3 84 512.83 84 512.83 35.75 500.3 35.75 500.3 65.25 500.18 65.25 477.18 35.75 464.64 35.75 464.64 84ZM546.49 46.38L546.49 35.75 519.02 35.75 519.02 84 546.49 84 546.49 73.38 531.55 73.38 531.55 65.06 545.71 65.06 545.71 54.44 531.55 54.44 531.55 46.38 546.49 46.38Z" fill="currentColor"/>
    </g>
</svg>
